<svg width="300" height="90" xmlns="http://www.w3.org/2000/svg">
    <defs>
        <clipPath clipPathUnits="userSpaceOnUse" id="a">
            <path d="M0 255.118h850.39V0H0Z"/>
        </clipPath>
    </defs>
    <g clip-path="url(#a)" transform="matrix(.35278 0 0 -.35278 0 90)">
        <path d="M0 0h-730.371c-2.309 0-4.589 0-6.892-.013-1.927-.012-3.84-.049-5.785-.079-4.19-.105-8.433-.363-12.617-1.113-4.214-.738-8.131-1.999-11.967-3.947a40.543 40.543 0 0 1-10.191-7.421 39.434 39.434 0 0 1-7.418-10.206c-1.958-3.831-3.2-7.766-3.935-11.983-.759-4.169-1.02-8.386-1.128-12.604-.058-1.931-.065-3.867-.095-5.798v-148.809c.03-1.955.037-3.848.095-5.804.108-4.217.369-8.435 1.128-12.604.735-4.217 1.977-8.171 3.935-11.989 1.909-3.75 4.406-7.206 7.418-10.163a39.512 39.512 0 0 1 10.191-7.421c3.836-1.967 7.753-3.209 11.967-3.971 4.184-.751 8.427-.997 12.617-1.113 1.945-.043 3.858-.067 5.785-.067 2.303-.013 4.583-.013 6.892-.013H0c2.263 0 4.562 0 6.824.013 1.919 0 3.886.024 5.805.067 4.217.116 8.447.362 12.591 1.113 4.217.762 8.14 2.004 12.013 3.971a39.517 39.517 0 0 1 10.182 7.421c3 2.957 5.496 6.413 7.439 10.163 1.931 3.818 3.185 7.772 3.898 11.989.775 4.169 1.02 8.387 1.169 12.604.024 1.956.024 3.849.024 5.804.049 2.287.049 4.562.049 6.886v135.049c0 2.306 0 4.593-.049 6.874 0 1.931 0 3.867-.024 5.798-.149 4.218-.394 8.435-1.169 12.604-.713 4.217-1.967 8.152-3.898 11.983-1.943 3.768-4.439 7.224-7.439 10.206a40.55 40.55 0 0 1-10.182 7.421C33.36-3.204 29.437-1.943 25.22-1.205c-4.144.75-8.374 1.008-12.591 1.113-1.919.03-3.886.067-5.805.079C4.562 0 2.263 0 0 0"
              style="fill:#c3c4c4;fill-opacity:1;fill-rule:nonzero;stroke:none" transform="translate(790.398 255.118)"/>
        <path d="M0 0c-1.918 0-3.79.024-5.693.067-3.52.099-7.695.295-11.768 1.027-3.843.695-7.258 1.827-10.431 3.45a34.027 34.027 0 0 0-8.795 6.4 33.499 33.499 0 0 0-6.424 8.792c-1.633 3.178-2.749 6.59-3.419 10.433-.768 4.236-.965 8.534-1.048 11.805-.04 1.328-.092 5.749-.092 5.749v148.722s.055 4.353.092 5.632c.083 3.298.28 7.593 1.042 11.786.673 3.865 1.789 7.274 3.422 10.465a33.846 33.846 0 0 0 6.391 8.801 35.02 35.02 0 0 0 8.828 6.437c3.234 1.642 6.644 2.764 10.41 3.425 4.239.759 8.536.949 11.807 1.032l5.681.077h744.023l5.748-.079c3.229-.081 7.526-.271 11.701-1.024 3.793-.664 7.224-1.792 10.519-3.45a34.731 34.731 0 0 0 8.762-6.394c2.576-2.557 4.733-5.527 6.443-8.841 1.623-3.218 2.73-6.627 3.369-10.381.732-3.972.959-8.051 1.094-11.882.019-1.782.019-3.698.019-5.604.049-2.361.049-4.608.049-6.874V54.522c0-2.287 0-4.518-.049-6.768 0-2.048 0-3.923-.025-5.854-.129-3.708-.356-7.784-1.076-11.669-.651-3.861-1.758-7.273-3.399-10.514-1.698-3.271-3.856-6.228-6.395-8.724a34.062 34.062 0 0 0-8.809-6.437c-3.266-1.66-6.598-2.76-10.502-3.462-4.034-.732-8.208-.928-11.768-1.027a245.487 245.487 0 0 0-5.65-.067l-6.825-.013z"
              style="fill:#231916;fill-opacity:1;fill-rule:nonzero;stroke:none" transform="translate(53.165 5.509)"/>
        <path d="M0 0h22.031l-7.889 21.117c-1.084 2.917-2.151 6.138-3.205 9.665a289.044 289.044 0 0 0-3.102-9.565zm25.794-10.023h-29.51l-7.224-19.743h-12.975l28.9 73.728h12.263l29.56-73.728H33.173Z"
              style="fill:#fff;fill-opacity:1;fill-rule:nonzero;stroke:none" transform="translate(289.6 92.718)"/>
        <path d="M0 0c2.561 3.442 3.842 8.472 3.842 15.086 0 6.14-1.059 10.591-3.181 13.357-2.122 2.765-4.943 4.146-8.471 4.146-2.444 0-4.7-.575-6.768-1.729-2.067-1.153-4.038-2.697-5.901-4.631v-29.41c1.252-.611 2.712-1.094 4.374-1.45a23.574 23.574 0 0 1 4.938-.533C-6.282-5.164-2.562-3.442 0 0m-33.047 28.061c0 4.072-.138 8.547-.406 13.434h11.803c.439-2.274.744-4.598.916-6.973 4.884 5.327 10.48 7.99 16.791 7.99 3.662 0 7.057-.925 10.175-2.773 3.122-1.849 5.642-4.766 7.559-8.751 1.916-3.986 2.875-9.051 2.875-15.188 0-6.412-1.097-11.891-3.286-16.436-2.185-4.545-5.248-7.987-9.182-10.329-3.934-2.34-8.48-3.512-13.636-3.512-3.733 0-7.412.63-11.041 1.884v-22.693l-12.568-1.069z"
              style="fill:#fff;fill-opacity:1;fill-rule:nonzero;stroke:none" transform="translate(375.31 76.36)"/>
        <path d="M0 0c2.562 3.442 3.842 8.472 3.842 15.086 0 6.14-1.059 10.591-3.181 13.357-2.122 2.765-4.943 4.146-8.471 4.146-2.444 0-4.7-.575-6.768-1.729-2.067-1.153-4.038-2.697-5.901-4.631v-29.41c1.251-.611 2.712-1.094 4.374-1.45a23.567 23.567 0 0 1 4.938-.533C-6.282-5.164-2.562-3.442 0 0m-33.047 28.061c0 4.072-.138 8.547-.406 13.434h11.802c.44-2.274.745-4.598.917-6.973 4.884 5.327 10.48 7.99 16.792 7.99 3.662 0 7.055-.925 10.173-2.773 3.123-1.849 5.642-4.766 7.559-8.751 1.917-3.986 2.875-9.051 2.875-15.188 0-6.412-1.096-11.891-3.285-16.436-2.185-4.545-5.248-7.987-9.183-10.329-3.933-2.34-8.479-3.512-13.635-3.512-3.733 0-7.412.63-11.041 1.884v-22.693l-12.568-1.069z"
              style="fill:#fff;fill-opacity:1;fill-rule:nonzero;stroke:none" transform="translate(433.067 76.36)"/>
        <path d="M0 0c-5.429 3.001-9.601 7.301-12.519 12.896-2.917 5.599-4.373 12.213-4.373 19.845 0 8.277 1.678 15.308 5.036 21.092 3.36 5.782 7.93 10.124 13.714 13.024 5.78 2.901 12.267 4.351 19.461 4.351 4.241 0 8.284-.466 12.134-1.4 3.851-.933 7.437-2.212 10.765-3.84L41.012 56.3c-6.685 3.187-13.063 4.782-19.131 4.782-5.123 0-9.61-1.093-13.46-3.281-3.851-2.187-6.843-5.402-8.982-9.643-2.134-4.24-3.206-9.36-3.206-15.366 0-5.257.825-9.922 2.469-13.992 1.646-4.07 4.24-7.295 7.785-9.668 3.545-2.375 8.015-3.562 13.406-3.562 2.444 0 4.888.203 7.328.612 2.444.406 4.733 1 6.868 1.781V22.87H17.047v9.769h29.255V1.601a65.479 65.479 0 0 0-13.255-4.529c-4.629-1.051-9.233-1.575-13.816-1.575C11.836-4.503 5.429-3.003 0 0"
              style="fill:#fff;fill-opacity:1;fill-rule:nonzero;stroke:none" transform="translate(473.442 66.439)"/>
        <path d="M0 0c2.612 1.253 4.751 2.814 6.412 4.681v10.176c-3.428.372-6.224.559-8.395.559-5.19 0-8.777-.839-10.761-2.518-1.984-1.679-2.976-3.944-2.976-6.792 0-2.714.72-4.725 2.16-6.031 1.444-1.305 3.403-1.959 5.876-1.959C-5.173-1.884-2.611-1.256 0 0m7.529-10.177C7.09-8.04 6.802-5.615 6.667-2.9 4.733-5.209 2.214-7.168-.892-8.776c-3.1-1.612-6.603-2.417-10.504-2.417-3.156 0-6.031.619-8.626 1.855-2.595 1.239-4.654 3.104-6.182 5.598-1.527 2.493-2.289 5.537-2.289 9.133 0 5.325 1.917 9.573 5.751 12.746 3.833 3.173 10.224 4.758 19.18 4.758 3.362 0 6.684-.238 9.974-.713v1.069c0 4.851-1.034 8.268-3.105 10.252-2.068 1.983-5.036 2.977-8.903 2.977-2.678 0-5.545-.39-8.6-1.171-3.051-.781-5.734-1.712-8.04-2.798l-1.984 9.16c2.24 1.016 5.19 1.95 8.856 2.798 3.662.846 7.529 1.271 11.601 1.271 4.746 0 8.785-.721 12.109-2.163 3.323-1.442 5.918-3.918 7.784-7.427 1.867-3.511 2.801-8.237 2.801-14.172V.152c0-2.272.133-5.716.405-10.329z"
              style="fill:#fff;fill-opacity:1;fill-rule:nonzero;stroke:none" transform="translate(557.499 73.13)"/>
        <path d="M0 0v64.874l12.514 1.017V2.236c0-2.339.398-3.992 1.197-4.959.795-.966 2.06-1.45 3.792-1.45.778 0 1.884.187 3.307.559l1.477-9.007c-1.189-.475-2.641-.856-4.353-1.145a29.424 29.424 0 0 0-4.859-.43C4.357-14.196 0-9.465 0 0"
              style="fill:#fff;fill-opacity:1;fill-rule:nonzero;stroke:none" transform="translate(587.424 76.132)"/>
        <path d="M0 0v64.874l12.515 1.017V2.236c0-2.339.397-3.992 1.196-4.959.796-.966 2.06-1.45 3.792-1.45.778 0 1.884.187 3.307.559l1.477-9.007c-1.188-.475-2.641-.856-4.352-1.145a29.445 29.445 0 0 0-4.86-.43C4.357-14.196 0-9.465 0 0"
              style="fill:#fff;fill-opacity:1;fill-rule:nonzero;stroke:none" transform="translate(618.717 76.132)"/>
        <path d="M0 0c-.234 4.376-1.34 7.659-3.307 9.846-1.966 2.188-4.595 3.281-7.884 3.281-3.19 0-5.843-1.101-7.965-3.307-2.118-2.205-3.503-5.478-4.148-9.82Zm12.263-7.987H-23.66c.578-11.499 6.056-17.25 16.435-17.25 2.579 0 5.215.313 7.915.941a47.1 47.1 0 0 1 7.759 2.52l2.746-8.601c-6.139-2.984-13.041-4.476-20.709-4.476-5.834 0-10.752 1.101-14.757 3.306-4 2.206-7.01 5.376-9.032 9.516-2.017 4.136-3.025 9.124-3.025 14.96 0 6.071 1.066 11.294 3.205 15.67 2.139 4.378 5.115 7.717 8.932 10.023 3.812 2.309 8.215 3.461 13.2 3.461 5.19 0 9.526-1.213 13.004-3.639 3.473-2.425 6.051-5.656 7.734-9.693 1.679-4.036 2.516-8.496 2.516-13.38z"
              style="fill:#fff;fill-opacity:1;fill-rule:nonzero;stroke:none" transform="translate(680.844 96.788)"/>
        <path d="M0 0c0 3.02-.138 7.614-.406 13.79h11.753c.205-1.527.397-3.351.586-5.47.183-2.122.313-3.842.38-5.165 1.457 2.408 2.892 4.435 4.298 6.079a17.585 17.585 0 0 0 4.939 4.02c1.88 1.036 4.026 1.553 6.432 1.553 1.934 0 3.596-.203 4.99-.611L31.394 3.308c-1.222.373-2.579.559-4.073.559-2.95 0-5.528-.756-7.734-2.264-2.205-1.509-4.562-3.996-7.068-7.455v-35.26H0Z"
              style="fill:#fff;fill-opacity:1;fill-rule:nonzero;stroke:none" transform="translate(703.234 104.065)"/>
        <path d="M0 0c-1.834.322-3.34.687-4.529 1.095l2.29 9.157c.844-.236 1.917-.464 3.206-.687a21.92 21.92 0 0 1 3.662-.33c5.561 0 9.734 3.58 12.517 10.738l.813 2.034-20.249 55.36h13.481L21.369 46.43c1.662-5.292 2.73-9.346 3.206-12.16a156.54 156.54 0 0 0 3.357 11.907l10.33 31.19H50.93L30.732 21.753c-1.9-5.259-3.951-9.498-6.157-12.721-2.205-3.222-4.808-5.614-7.809-7.174C13.761.298 10.141-.483 5.9-.483 3.796-.483 1.833-.322 0 0"
              style="fill:#fff;fill-opacity:1;fill-rule:nonzero;stroke:none" transform="translate(743.744 40.487)"/>
        <path d="M0 0h-70.972c-33.433 0-45.662-12.229-45.662-45.661v-70.973c0-33.431 12.229-45.66 45.661-45.66H-.022c33.433 0 45.684 12.229 45.684 45.66v70.973C45.662-12.229 33.433 0 0 0"
              style="fill:#cf102d;fill-opacity:1;fill-rule:evenodd;stroke:none" transform="translate(172.35 208.706)"/>
        <path d="M0 0h6.509L3.244 7.593Zm-1.602-3.825-1.931-4.418h-4.395l9.347 21.206h3.799l9.31-21.206h-4.514L8.109-3.825ZM69.13-8.229h4.248v21.191H69.13ZM52.221.876h7.83v3.863h-7.83v4.343h11.367v3.868H47.974V-8.242h16.024v3.865H52.221Zm-16.88-2.504-4.817 14.592H27.01L22.193-1.628l-4.688 14.582h-4.582l7.396-21.209h3.564l4.825 13.931 4.823-13.931h3.595l7.377 21.209H40.04ZM-14.415.817c0-3.449-1.712-5.293-4.823-5.293-3.127 0-4.85 1.896-4.85 5.441v11.986h-4.306V.817c0-5.967 3.317-9.39 9.098-9.39 5.838 0 9.185 3.487 9.185 9.567v11.969h-4.304zm-24.251 12.146h4.304V-8.256h-4.304V.361h-9.721v-8.617h-4.306v21.219h4.306v-8.56h9.721z"
              style="fill:#fff;fill-opacity:1;fill-rule:nonzero;stroke:none" transform="translate(126.521 114.582)"/>
        <path d="M0 0c-14.896 0-27.015 12.119-27.015 27.015h3.817C-23.198 14.224-12.791 3.817 0 3.817c12.792 0 23.198 10.407 23.198 23.198h3.817C27.015 12.119 14.896 0 0 0"
              style="fill:#fff;fill-opacity:1;fill-rule:nonzero;stroke:none" transform="translate(136.863 154.561)"/>
        <path d="M0 0c1.758 1.18 3.072 2.804 3.942 4.872.871 2.067 1.306 4.432 1.306 7.093 0 2.612-.385 4.939-1.155 6.981-.77 2.043-2 3.671-3.691 4.885-1.691 1.213-3.867 1.82-6.529 1.82-2.545 0-4.705-.615-6.479-1.845-1.775-1.231-3.105-2.88-3.993-4.948-.887-2.067-1.331-4.348-1.331-6.842 0-2.629.419-4.981 1.256-7.057.837-2.076 2.117-3.716 3.842-4.921 1.724-1.206 3.859-1.809 6.403-1.809 2.528 0 4.671.59 6.429 1.771m-16.272-4.458c-2.662 1.524-4.696 3.663-6.103 6.416-1.406 2.754-2.109 5.956-2.109 9.605 0 3.834.749 7.187 2.248 10.058 1.498 2.871 3.657 5.089 6.478 6.654 2.821 1.566 6.149 2.349 9.982 2.349 3.667 0 6.822-.758 9.467-2.273 2.645-1.515 4.663-3.645 6.052-6.391 1.39-2.746 2.085-5.926 2.085-9.543 0-3.9-.758-7.29-2.273-10.17C8.04-.632 5.88-2.851 3.076-4.407.272-5.964-3.022-6.743-6.805-6.743c-3.65 0-6.805.762-9.467 2.285"
              style="fill:#fff;fill-opacity:1;fill-rule:nonzero;stroke:none" transform="translate(288.894 169.143)"/>
        <path d="M0 0h-11.275l.552 5.248h28.301L17 0H6.278v-31.113H0Z"
              style="fill:#fff;fill-opacity:1;fill-rule:nonzero;stroke:none" transform="translate(313.454 194.016)"/>
        <path d="M0 0h-7.082l-10.823 16.021h-4.294V0h-6.278v36.361h6.278V21.345h3.29l7.534 10.898c1.104 1.624 2.213 2.8 3.327 3.528 1.113.729 2.515 1.093 4.206 1.093 1.406 0 2.662-.235 3.767-.703l-1.306-4.897c-.686.284-1.34.426-1.959.426-.737 0-1.368-.184-1.896-.552-.527-.368-1.076-.962-1.645-1.783l-6.654-9.542z"
              style="fill:#fff;fill-opacity:1;fill-rule:nonzero;stroke:none" transform="translate(364.832 162.903)"/>
        <path d="M0 0c1.339 1.213 2.009 2.925 2.009 5.135 0 2.243-.682 3.859-2.047 4.846-1.364.988-3.369 1.482-6.014 1.482h-3.415V-1.444c1.574-.251 2.779-.377 3.616-.377C-3.29-1.821-1.339-1.214 0 0m-15.745 16.234h9.794c4.603 0 8.128-.937 10.572-2.812 2.444-1.875 3.666-4.587 3.666-8.136 0-2.411-.548-4.516-1.645-6.316-1.096-1.8-2.624-3.18-4.582-4.143-1.959-.963-4.211-1.444-6.756-1.444-1.389 0-2.98.167-4.771.502v-14.012h-6.278z"
              style="fill:#fff;fill-opacity:1;fill-rule:nonzero;stroke:none" transform="translate(385.373 183.03)"/>
        <path d="M0 0c1.758 1.18 3.072 2.804 3.942 4.872.871 2.067 1.307 4.432 1.307 7.093 0 2.612-.386 4.939-1.156 6.981-.77 2.043-2.001 3.671-3.691 4.885-1.691 1.213-3.867 1.82-6.529 1.82-2.545 0-4.705-.615-6.479-1.845-1.775-1.231-3.105-2.88-3.993-4.948-.887-2.067-1.331-4.348-1.331-6.842 0-2.629.419-4.981 1.256-7.057.837-2.076 2.117-3.716 3.842-4.921 1.724-1.206 3.859-1.809 6.403-1.809 2.528 0 4.671.59 6.429 1.771m-16.272-4.458c-2.662 1.524-4.696 3.663-6.103 6.416-1.406 2.754-2.109 5.956-2.109 9.605 0 3.834.749 7.187 2.248 10.058 1.498 2.871 3.657 5.089 6.478 6.654 2.821 1.566 6.149 2.349 9.982 2.349 3.667 0 6.822-.758 9.467-2.273 2.645-1.515 4.663-3.645 6.053-6.391 1.388-2.746 2.084-5.926 2.084-9.543 0-3.9-.758-7.29-2.273-10.17C8.04-.632 5.88-2.851 3.076-4.407.272-5.964-3.022-6.743-6.805-6.743c-3.65 0-6.806.762-9.467 2.285"
              style="fill:#fff;fill-opacity:1;fill-rule:nonzero;stroke:none" transform="translate(422.011 169.143)"/>
        <path d="M0 0c-1.322.703-2.331 1.607-3.025 2.712a9.055 9.055 0 0 0-1.319 3.566h4.52C.661 3.6 2.235 2.26 4.897 2.26S9.141 3.6 9.644 6.278h4.544a9.084 9.084 0 0 0-1.318-3.566C12.175 1.607 11.162.703 9.831 0c-1.33-.703-2.976-1.055-4.934-1.055C2.955-1.055 1.323-.703 0 0m14.163-39.525v19.988c0 2.512.092 5.391.276 8.639L-3.816-39.525h-6.982v36.361h5.826v-20.767c0-2.26-.075-4.73-.226-7.408l17.98 28.175h7.207v-36.361z"
              style="fill:#fff;fill-opacity:1;fill-rule:nonzero;stroke:none" transform="translate(451.643 202.428)"/>
        <path d="M0 0h-11.275l.552 5.248h28.301L17.001 0H6.278v-31.113H0Z"
              style="fill:#fff;fill-opacity:1;fill-rule:nonzero;stroke:none" transform="translate(488.23 194.016)"/>
        <path d="M0 0h21.421l-.603-5.173H6.278v-10.019h13.711v-4.847H6.278v-11.099h15.319l-.528-5.223H0Z"
              style="fill:#fff;fill-opacity:1;fill-rule:nonzero;stroke:none" transform="translate(511.132 199.264)"/>
        <path d="M0 0c1.28 1.046 1.921 2.524 1.921 4.432 0 2.026-.707 3.566-2.122 4.621-1.414 1.054-3.452 1.582-6.114 1.582h-4.219V-1.569h4.721C-3.219-1.569-1.28-1.046 0 0m-10.534 15.28h3.917c1.305 0 2.457.26 3.453.779s1.762 1.218 2.298 2.097c.535.879.804 1.845.804 2.9 0 1.49-.541 2.603-1.621 3.34-1.08.737-2.64 1.105-4.683 1.105h-4.168zm14.527-3.528a8.733 8.733 0 0 0 3.064-3.139c.745-1.297 1.117-2.816 1.117-4.557 0-2.026-.507-3.813-1.52-5.362C5.642-2.854 4.16-4.06 2.21-4.922.26-5.784-2.08-6.215-4.809-6.215h-11.852v36.361h11.349c3.851 0 6.739-.745 8.665-2.234 1.924-1.49 2.887-3.533 2.887-6.128 0-2.159-.615-3.963-1.845-5.411-1.231-1.448-2.842-2.465-4.834-3.051 1.657-.251 3.134-.775 4.432-1.57"
              style="fill:#fff;fill-opacity:1;fill-rule:nonzero;stroke:none" transform="translate(572.518 169.118)"/>
    </g>
</svg>