<svg width="3840" height="1696" viewBox="0 0 3840 1696" fill="none" xmlns="http://www.w3.org/2000/svg">
<path d="M1635.18 746.093H1636.34C1658.76 746.093 1676.78 761.774 1676.78 783.547C1676.78 805.32 1658.76 821.002 1636.34 821.002H1635.18V832.277H1617.68V821.002H1616.51C1594.09 821.002 1576.08 805.32 1576.08 783.547C1576.08 761.774 1594.09 746.093 1616.51 746.093H1617.68V736.373H1635.18V746.093ZM1616.9 805.061H1617.68V762.034H1616.9C1605.11 762.034 1594.74 769.291 1594.74 783.547C1594.74 797.803 1605.24 805.061 1616.9 805.061ZM1635.18 805.061H1635.82C1647.49 805.061 1658.12 797.803 1658.12 783.547C1658.12 769.291 1647.62 762.034 1635.82 762.034H1635.18V805.061ZM1717.36 781.603L1735.63 740.39H1755.33L1723.71 809.338C1717.1 823.853 1711.27 828.907 1699.73 828.907C1695.84 828.907 1693.12 828.389 1690.66 827.222V811.282C1692.21 811.67 1694.42 811.8 1696.1 811.8C1700.9 811.8 1704.66 810.504 1707.64 803.635L1708.03 802.728L1677.44 740.39H1697.79L1717.36 781.603ZM1799.26 828H1780.99V757.238H1757.92V740.39H1822.33V757.238H1799.26V828ZM1852.31 772.92H1864.88C1885.36 772.92 1897.41 784.714 1897.41 800.395C1897.41 816.206 1885.36 828 1864.88 828H1834.04V740.39H1889.12V756.979H1852.31V772.92ZM1852.31 811.411H1864.62C1874.21 811.411 1878.88 806.746 1878.88 800.395C1878.88 794.174 1874.21 789.379 1864.62 789.379H1852.31V811.411ZM1951.07 829.555C1925.66 829.555 1904.54 810.634 1904.54 784.195C1904.54 757.627 1925.66 738.835 1951.07 738.835C1976.47 738.835 1997.46 757.627 1997.46 784.195C1997.46 810.634 1976.47 829.555 1951.07 829.555ZM1951.07 812.578C1966.88 812.578 1978.8 800.525 1978.8 784.195C1978.8 767.736 1966.88 755.813 1951.07 755.813C1935.25 755.813 1923.2 767.736 1923.2 784.195C1923.2 800.525 1935.25 812.578 1951.07 812.578ZM2016.33 795.082L2019.7 740.39H2079.96V828H2061.69V757.109H2036.68L2034.34 797.933C2033.05 821.131 2023.2 829.944 2006.35 829.944H2000.78V811.93H2003.37C2011.66 811.93 2015.55 807.005 2016.33 795.082ZM2135.73 782.122L2158.93 808.69C2163.07 813.355 2164.11 813.874 2169.94 813.874V828.907C2167.87 829.166 2165.8 829.296 2163.33 829.296C2154.65 829.296 2151.67 826.963 2145.06 819.317L2117.71 787.435V828H2099.44V740.39H2117.71V778.622L2148.17 740.39H2169.81L2135.73 782.122ZM2199.22 796.118L2244.97 740.39H2257.41V828H2239.27V772.272L2193.39 828H2180.95V740.39H2199.22V796.118Z" fill="black"/>
<path d="M1672.01 932.744V926.984H1677.19V961.4H1672.01V955.64C1669.13 959.6 1664.52 962.12 1658.98 962.12C1649.55 962.12 1641.55 954.488 1641.55 944.192C1641.55 933.824 1649.55 926.264 1658.98 926.264C1664.52 926.264 1669.13 928.712 1672.01 932.744ZM1659.48 957.152C1666.61 957.152 1672.15 951.68 1672.15 944.192C1672.15 936.704 1666.61 931.232 1659.48 931.232C1652.43 931.232 1646.88 936.704 1646.88 944.192C1646.88 951.68 1652.43 957.152 1659.48 957.152ZM1698.11 943.76L1710.71 955.568C1712.01 956.792 1712.73 957.08 1714.89 957.08V961.616C1714.38 961.688 1713.81 961.76 1713.23 961.76C1710.57 961.76 1709.49 961.04 1707.69 959.24L1692.78 945.344V961.4H1687.53V926.984H1692.78V942.752L1708.05 926.984H1714.53L1698.11 943.76ZM1733.67 961.4H1728.34V931.952H1716.53V926.984H1745.48V931.952H1733.67V961.4ZM1766.03 952.616L1776.97 926.984H1782.87L1764.37 969.464C1762.43 973.856 1760.19 975.656 1756.38 975.656C1754.87 975.656 1753.64 975.368 1752.85 974.936V970.04C1753.86 970.328 1754.58 970.472 1755.37 970.472C1757.24 970.472 1758.75 969.752 1759.69 967.592L1763.51 958.88L1747.88 926.984H1753.71L1766.03 952.616ZM1815.24 932.744V926.984H1820.42V961.4H1815.24V955.64C1812.36 959.6 1807.75 962.12 1802.21 962.12C1792.77 962.12 1784.78 954.488 1784.78 944.192C1784.78 933.824 1792.77 926.264 1802.21 926.264C1807.75 926.264 1812.36 928.712 1815.24 932.744ZM1802.71 957.152C1809.84 957.152 1815.38 951.68 1815.38 944.192C1815.38 936.704 1809.84 931.232 1802.71 931.232C1795.65 931.232 1790.11 936.704 1790.11 944.192C1790.11 951.68 1795.65 957.152 1802.71 957.152ZM1833.92 948.512L1835.58 926.984H1859.27V961.4H1854.01V931.952H1840.47L1839.18 949.592C1838.53 958.16 1834.64 961.832 1828.45 961.832H1826.87V956.648H1828.02C1831.47 956.648 1833.49 954.488 1833.92 948.512ZM1874.89 938.792H1883.25C1891.74 938.792 1896.71 943.328 1896.71 950.096C1896.71 956.864 1891.74 961.4 1883.25 961.4H1869.64V926.984H1874.89V938.792ZM1874.89 956.648H1883.1C1888 956.648 1891.38 954.704 1891.38 950.096C1891.38 945.488 1888 943.544 1883.1 943.544H1874.89V956.648ZM1928.79 941.456V926.984H1934.11V961.4H1928.79V946.352H1909.35V961.4H1904.09V926.984H1909.35V941.456H1928.79ZM1972.32 932.744V926.984H1977.5V961.4H1972.32V955.64C1969.44 959.6 1964.83 962.12 1959.28 962.12C1949.85 962.12 1941.86 954.488 1941.86 944.192C1941.86 933.824 1949.85 926.264 1959.28 926.264C1964.83 926.264 1969.44 928.712 1972.32 932.744ZM1959.79 957.152C1966.92 957.152 1972.46 951.68 1972.46 944.192C1972.46 936.704 1966.92 931.232 1959.79 931.232C1952.73 931.232 1947.19 936.704 1947.19 944.192C1947.19 951.68 1952.73 957.152 1959.79 957.152ZM1999.28 926.984H2014.11V961.4H2008.78V948.44H2002.23L1993.09 959.312C1991.43 961.184 1990.21 961.76 1987.4 961.76C1986.9 961.76 1986.32 961.688 1985.82 961.616V957.08C1988.05 957.08 1988.77 956.792 1989.92 955.424L1996.26 948.152C1990.5 947.144 1986.97 943.04 1986.97 937.784C1986.97 931.592 1991.72 926.984 1999.28 926.984ZM1999.5 943.688H2008.78V931.736H1999.5C1995.32 931.736 1992.37 933.752 1992.37 937.856C1992.37 941.744 1995.32 943.688 1999.5 943.688ZM2061.08 927.704C2070.08 927.704 2077.71 935.12 2077.71 944.912C2077.71 954.632 2069.79 962.12 2060.21 962.12C2050.85 962.12 2042.21 956 2042.21 941.168C2042.21 926.192 2046.75 918.128 2054.16 915.104C2060.93 912.296 2067.7 911.864 2074.54 910.568V915.752C2068.06 916.976 2060.64 917.696 2055.53 920C2051.14 921.944 2048.33 927.128 2047.68 934.04C2050.85 929.648 2055.46 927.704 2061.08 927.704ZM2060.21 957.152C2066.84 957.152 2072.31 951.68 2072.31 944.912C2072.31 938.144 2066.84 932.672 2060.21 932.672C2053.37 932.672 2047.97 938.144 2047.97 944.912C2047.97 951.68 2053.37 957.152 2060.21 957.152ZM2113.43 932.744V926.984H2118.62V961.4H2113.43V955.64C2110.55 959.6 2105.94 962.12 2100.4 962.12C2090.97 962.12 2082.98 954.488 2082.98 944.192C2082.98 933.824 2090.97 926.264 2100.4 926.264C2105.94 926.264 2110.55 928.712 2113.43 932.744ZM2100.9 957.152C2108.03 957.152 2113.58 951.68 2113.58 944.192C2113.58 936.704 2108.03 931.232 2100.9 931.232C2093.85 931.232 2088.3 936.704 2088.3 944.192C2088.3 951.68 2093.85 957.152 2100.9 957.152ZM2148.61 943.472C2152.42 944.768 2154.94 947.864 2154.94 951.968C2154.94 958.016 2149.61 962.12 2140.69 962.12C2131.97 962.12 2126.43 957.872 2126.07 951.464H2131.18C2131.69 954.848 2134.64 957.368 2140.69 957.368C2146.59 957.368 2149.61 955.208 2149.61 951.68C2149.61 948.296 2147.24 945.92 2141.91 945.92H2135.86V941.456H2141.91C2146.01 941.456 2148.68 939.512 2148.68 936.2C2148.68 932.96 2145.87 931.016 2140.97 931.016C2134.93 931.016 2132.41 933.536 2131.97 936.56H2126.72C2127.44 930.44 2132.41 926.264 2140.97 926.264C2148.75 926.264 2154.08 930.08 2154.08 935.912C2154.08 939.296 2152.21 942.032 2148.61 943.472ZM2190.78 932.744V926.984H2195.96V961.4H2190.78V955.64C2187.9 959.6 2183.29 962.12 2177.74 962.12C2168.31 962.12 2160.32 954.488 2160.32 944.192C2160.32 933.824 2168.31 926.264 2177.74 926.264C2183.29 926.264 2187.9 928.712 2190.78 932.744ZM2178.25 957.152C2185.38 957.152 2190.92 951.68 2190.92 944.192C2190.92 936.704 2185.38 931.232 2178.25 931.232C2171.19 931.232 2165.65 936.704 2165.65 944.192C2165.65 951.68 2171.19 957.152 2178.25 957.152Z" fill="black"/>
</svg>
