<svg width="3840" height="240" viewBox="0 0 3840 240" fill="none" xmlns="http://www.w3.org/2000/svg">
<path d="M1354.47 145.891C1338.67 145.891 1325.79 133.822 1325.79 117.622C1325.79 101.341 1338.67 89.353 1354.47 89.353C1370.18 89.353 1383.06 101.341 1383.06 117.622C1383.06 133.822 1370.18 145.891 1354.47 145.891ZM1354.47 137.548C1365.4 137.548 1373.83 128.962 1373.83 117.622C1373.83 106.282 1365.4 97.696 1354.47 97.696C1343.53 97.696 1335.03 106.282 1335.03 117.622C1335.03 128.962 1343.53 137.548 1354.47 137.548ZM1402.1 145H1393.11V90.244H1436.36V145H1427.37V98.587H1402.1V145ZM1453.88 125.479L1456.14 90.244H1491.78V145H1482.79V98.506H1464.57L1462.79 126.613C1461.9 141.031 1455.9 145.891 1446.75 145.891H1443.99V137.062H1445.45C1450.8 137.062 1453.39 133.579 1453.88 125.479ZM1551.04 145H1541.49L1536.71 132.202H1513.54L1508.76 145H1499.2L1520.83 90.244H1529.42L1551.04 145ZM1533.79 123.859L1525.12 101.098L1516.46 123.859H1533.79ZM1572.31 145H1563.32V98.587H1548.66V90.244H1587.05V98.587H1572.31V145ZM1604.2 129.043L1635.47 90.244H1641.54V145H1632.63V106.201L1601.29 145H1595.21V90.244H1604.2V129.043ZM1686.55 111.304H1695.46C1707.61 111.304 1715.14 118.432 1715.14 128.152C1715.14 137.872 1707.61 145 1695.46 145H1677.56V90.244H1710.28V98.506H1686.55V111.304ZM1686.55 136.738H1695.38C1702.18 136.738 1705.99 133.174 1705.99 128.152C1705.99 123.13 1702.18 119.485 1695.38 119.485H1686.55V136.738ZM1749.34 145.891C1733.55 145.891 1720.67 133.822 1720.67 117.622C1720.67 101.341 1733.55 89.353 1749.34 89.353C1765.06 89.353 1777.94 101.341 1777.94 117.622C1777.94 133.822 1765.06 145.891 1749.34 145.891ZM1749.34 137.548C1760.28 137.548 1768.7 128.962 1768.7 117.622C1768.7 106.282 1760.28 97.696 1749.34 97.696C1738.41 97.696 1729.9 106.282 1729.9 117.622C1729.9 128.962 1738.41 137.548 1749.34 137.548ZM1822.65 112.6V90.244H1831.64V145H1822.65V120.943H1796.97V145H1787.98V90.244H1796.97V112.6H1822.65ZM1864.13 118.918L1876.93 90.244H1886.65L1865.83 135.685C1862.51 142.813 1859.35 145.486 1853.68 145.486C1851.58 145.486 1850.12 145.162 1848.82 144.595V136.657C1849.88 136.981 1850.93 137.062 1851.9 137.062C1854.41 137.062 1856.36 136.252 1857.89 132.769L1859.51 129.205L1840.32 90.244H1850.36L1864.13 118.918ZM1915.69 145.891C1900.38 145.891 1887.34 133.984 1887.34 117.622C1887.34 101.26 1900.38 89.353 1915.69 89.353C1928.16 89.353 1938.37 96.805 1942.25 108.631H1932.78C1929.7 102.07 1923.54 97.696 1915.69 97.696C1905.08 97.696 1896.57 106.282 1896.57 117.622C1896.57 128.962 1905.08 137.548 1915.69 137.548C1923.71 137.548 1929.86 133.174 1932.86 126.532H1942.34C1938.45 138.439 1928.32 145.891 1915.69 145.891ZM1995.99 145H1986.43L1981.65 132.202H1958.49L1953.71 145H1944.15L1965.78 90.244H1974.36L1995.99 145ZM1978.74 123.859L1970.07 101.098L1961.4 123.859H1978.74ZM2033.67 133.255L2052.3 90.244H2063.55V145H2054.64V104.662L2037.07 145H2030.1L2012.44 104.5V145H2003.53V90.244H2014.95L2033.67 133.255ZM2085.85 129.043L2117.12 90.244H2123.19V145H2114.28V106.201L2082.94 145H2076.86V90.244H2085.85V129.043ZM2201.16 90.244V136.657H2208.62V158.284H2199.62V145H2163.09V158.284H2154.1V136.657C2159.29 136.09 2162.61 131.797 2163.34 124.102L2166.33 90.244H2201.16ZM2167.71 136.657H2192.17V98.506H2174.6L2172.17 125.074C2171.68 130.987 2170.38 134.389 2167.71 136.657ZM2240.96 145.891C2225.16 145.891 2212.29 133.822 2212.29 117.622C2212.29 101.341 2225.16 89.353 2240.96 89.353C2256.67 89.353 2269.55 101.341 2269.55 117.622C2269.55 133.822 2256.67 145.891 2240.96 145.891ZM2240.96 137.548C2251.89 137.548 2260.32 128.962 2260.32 117.622C2260.32 106.282 2251.89 97.696 2240.96 97.696C2230.02 97.696 2221.52 106.282 2221.52 117.622C2221.52 128.962 2230.02 137.548 2240.96 137.548ZM2327.69 116.326C2333.04 118.351 2336.76 123.211 2336.76 129.61C2336.76 138.277 2329.8 145.891 2317.32 145.891C2305.58 145.891 2297.64 139.087 2297.24 128.476H2305.9C2306.31 134.47 2310.68 138.358 2317.57 138.358C2323.88 138.358 2328.1 134.47 2328.1 129.286C2328.1 124.183 2324.53 120.619 2317.24 120.619H2311.73V113.086H2317.08C2322.83 113.086 2326.48 109.684 2326.48 104.905C2326.48 100.207 2322.67 96.886 2317.24 96.886C2310.84 96.886 2307.52 100.612 2306.96 105.634H2298.29C2298.53 95.59 2306.71 89.353 2317.08 89.353C2327.77 89.353 2335.22 95.671 2335.22 104.338C2335.22 109.927 2332.23 114.058 2327.69 116.326ZM2366.42 145.891C2353.46 145.891 2344.71 135.199 2344.71 117.622C2344.71 100.045 2353.46 89.353 2366.42 89.353C2379.38 89.353 2388.21 100.045 2388.21 117.622C2388.21 135.199 2379.38 145.891 2366.42 145.891ZM2366.42 138.115C2374.28 138.115 2379.46 130.42 2379.46 117.622C2379.46 104.824 2374.28 97.129 2366.42 97.129C2358.64 97.129 2353.46 104.824 2353.46 117.622C2353.46 130.42 2358.64 138.115 2366.42 138.115ZM2408.69 116.893C2400.75 116.893 2394.6 110.737 2394.6 103.042C2394.6 95.428 2400.75 89.353 2408.69 89.353C2416.55 89.353 2422.78 95.428 2422.78 103.042C2422.78 110.737 2416.55 116.893 2408.69 116.893ZM2410.31 145H2402.7L2440.28 90.244H2447.89L2410.31 145ZM2408.69 110.818C2412.98 110.818 2416.14 107.659 2416.14 103.042C2416.14 98.506 2412.98 95.347 2408.69 95.347C2404.4 95.347 2401.08 98.506 2401.08 103.042C2401.08 107.659 2404.4 110.818 2408.69 110.818ZM2441.9 145.891C2434.04 145.891 2427.81 139.735 2427.81 132.121C2427.81 124.507 2434.04 118.351 2441.9 118.351C2449.76 118.351 2455.99 124.507 2455.99 132.121C2455.99 139.735 2449.76 145.891 2441.9 145.891ZM2441.9 139.897C2446.11 139.897 2449.43 136.738 2449.43 132.121C2449.43 127.585 2446.11 124.345 2441.9 124.345C2437.53 124.345 2434.29 127.585 2434.29 132.121C2434.29 136.738 2437.53 139.897 2441.9 139.897Z" fill="#171717"/>
<path d="M2501 102L2519 116L2501 130" stroke="black" stroke-width="4"/>
</svg>
