<svg width="3840" height="1696" viewBox="0 0 3840 1696" fill="none" xmlns="http://www.w3.org/2000/svg">
<path d="M1810.72 795.082L1814.09 740.39H1874.36V828H1856.08V757.109H1831.07L1828.74 797.933C1827.44 821.131 1817.59 829.944 1800.74 829.944H1795.17V811.93H1797.76C1806.06 811.93 1809.94 807.005 1810.72 795.082ZM1909.51 733.262C1903.81 733.262 1899.54 728.856 1899.54 722.894C1899.54 717.581 1903.81 713.304 1909.51 713.304C1915.22 713.304 1919.62 717.581 1919.62 722.894C1919.62 728.856 1915.22 733.262 1909.51 733.262ZM1934.79 733.262C1929.08 733.262 1924.81 728.856 1924.81 722.894C1924.81 717.581 1929.08 713.304 1934.79 713.304C1940.49 713.304 1944.9 717.581 1944.9 722.894C1944.9 728.856 1940.49 733.262 1934.79 733.262ZM1912.11 791.323V811.411H1949.95V828H1893.83V740.39H1948.65V756.979H1912.11V774.605H1947.49V791.323H1912.11ZM2019.14 774.605V740.39H2037.41V828H2019.14V791.453H1983.11V828H1964.83V740.39H1983.11V774.605H2019.14Z" fill="white"/>
<path d="M1599.88 962.12C1590.16 962.12 1582.16 954.488 1582.16 944.192C1582.16 933.824 1590.16 926.264 1599.88 926.264C1607.15 926.264 1613.84 930.44 1616.36 937.712H1610.75C1608.59 933.536 1604.34 931.232 1599.88 931.232C1593.04 931.232 1587.49 936.704 1587.49 944.192C1587.49 951.68 1593.04 957.152 1599.88 957.152C1604.34 957.152 1608.59 954.848 1610.75 950.672H1616.36C1613.84 958.016 1607.15 962.12 1599.88 962.12ZM1651.43 932.744V926.984H1656.62V961.4H1651.43V955.64C1648.55 959.6 1643.94 962.12 1638.4 962.12C1628.97 962.12 1620.98 954.488 1620.98 944.192C1620.98 933.824 1628.97 926.264 1638.4 926.264C1643.94 926.264 1648.55 928.712 1651.43 932.744ZM1638.9 957.152C1646.03 957.152 1651.58 951.68 1651.58 944.192C1651.58 936.704 1646.03 931.232 1638.9 931.232C1631.85 931.232 1626.3 936.704 1626.3 944.192C1626.3 951.68 1631.85 957.152 1638.9 957.152ZM1685.96 954.128L1699.35 926.984H1704.89V961.4H1699.71V936.344L1687.33 961.4H1684.52L1672.06 936.056V961.4H1666.95V926.984H1672.57L1685.96 954.128ZM1720.51 938.792H1728C1736.42 938.792 1741.39 943.328 1741.39 950.096C1741.39 956.864 1736.42 961.4 1728 961.4H1715.25V926.984H1720.51V938.792ZM1746.72 961.4V926.984H1751.97V961.4H1746.72ZM1720.51 956.648H1727.78C1732.68 956.648 1736.06 954.704 1736.06 950.096C1736.06 945.488 1732.68 943.544 1727.78 943.544H1720.51V956.648ZM1777.77 922.52C1771.72 922.52 1767.91 918.632 1767.55 913.232H1772.16C1772.44 916.832 1774.89 918.704 1777.77 918.704C1780.72 918.704 1783.1 916.832 1783.39 913.232H1788.07C1787.71 918.632 1783.89 922.52 1777.77 922.52ZM1767.62 952.832L1788.64 926.984H1792.6V961.4H1787.35V935.552L1766.32 961.4H1762.36V926.984H1767.62V952.832ZM1825.79 948.512L1827.45 926.984H1851.13V961.4H1845.88V931.952H1832.34L1831.05 949.592C1830.4 958.16 1826.51 961.832 1820.32 961.832H1818.73V956.648H1819.89C1823.34 956.648 1825.36 954.488 1825.79 948.512ZM1876.34 926.264C1886.85 926.264 1894.91 935.192 1893.4 945.992H1864.38C1865.1 952.976 1869.86 957.44 1876.34 957.44C1881.52 957.44 1885.19 954.92 1887.14 951.104H1892.61C1889.87 958.016 1884.11 962.12 1876.26 962.12C1866.69 962.12 1858.98 954.56 1858.98 944.192C1858.98 933.824 1866.69 926.264 1876.34 926.264ZM1876.34 931.016C1870.14 931.016 1865.54 935.048 1864.53 941.456H1888.14C1887.57 935.696 1883.03 931.016 1876.34 931.016ZM1913.13 961.4H1907.8V931.952H1895.99V926.984H1924.94V931.952H1913.13V961.4ZM1955.53 941.456V926.984H1960.86V961.4H1955.53V946.352H1936.09V961.4H1930.83V926.984H1936.09V941.456H1955.53ZM1976.38 952.832L1997.4 926.984H2001.36V961.4H1996.11V935.552L1975.08 961.4H1971.12V926.984H1976.38V952.832ZM2027.17 922.52C2021.12 922.52 2017.31 918.632 2016.95 913.232H2021.55C2021.84 916.832 2024.29 918.704 2027.17 918.704C2030.12 918.704 2032.5 916.832 2032.79 913.232H2037.47C2037.11 918.632 2033.29 922.52 2027.17 922.52ZM2017.02 952.832L2038.04 926.984H2042V961.4H2036.75V935.552L2015.72 961.4H2011.76V926.984H2017.02V952.832ZM2084.69 961.4H2079.36V931.952H2067.56V926.984H2096.5V931.952H2084.69V961.4ZM2120.68 926.264C2130.04 926.264 2138.11 933.824 2138.11 944.192C2138.11 954.488 2130.04 962.12 2120.68 962.12C2115.14 962.12 2110.46 959.672 2107.65 955.712V975.296H2102.39V926.984H2107.51V932.816C2110.39 928.784 2114.99 926.264 2120.68 926.264ZM2120.11 957.152C2127.16 957.152 2132.71 951.68 2132.71 944.192C2132.71 936.704 2127.16 931.232 2120.11 931.232C2113.05 931.232 2107.43 936.704 2107.43 944.192C2107.43 951.68 2113.05 957.152 2120.11 957.152ZM2160.68 926.264C2171.19 926.264 2179.26 935.192 2177.74 945.992H2148.73C2149.45 952.976 2154.2 957.44 2160.68 957.44C2165.86 957.44 2169.54 954.92 2171.48 951.104H2176.95C2174.22 958.016 2168.46 962.12 2160.61 962.12C2151.03 962.12 2143.33 954.56 2143.33 944.192C2143.33 933.824 2151.03 926.264 2160.68 926.264ZM2160.68 931.016C2154.49 931.016 2149.88 935.048 2148.87 941.456H2172.49C2171.91 935.696 2167.38 931.016 2160.68 931.016ZM2210.2 941.456V926.984H2215.53V961.4H2210.2V946.352H2190.76V961.4H2185.5V926.984H2190.76V941.456H2210.2ZM2253.95 926.984V956.432H2259.06V971.192H2253.8V961.4H2227.02V971.192H2221.69V956.432C2225.36 956.36 2228.17 953.552 2228.6 947.864L2230.33 926.984H2253.95ZM2230.47 956.432H2248.62V931.88H2235.08L2233.71 947.936C2233.35 952.4 2232.27 954.704 2230.47 956.432Z" fill="white"/>
</svg>
