<?xml version="1.0" encoding="utf-8"?>
<!DOCTYPE svg PUBLIC "-//W3C//DTD SVG 1.1//EN" "http://www.w3.org/Graphics/SVG/1.1/DTD/svg11.dtd">
<svg version="1.1" width="431" height="80" xmlns="http://www.w3.org/2000/svg" xmlns:xlink="http://www.w3.org/1999/xlink" x="0px" y="0px"
	 viewBox="0 0 430.9 80" enable-background="new 0 0 430.9 80" xml:space="preserve">
<g>
	<path fill="#FFFFFF" d="M95.4,43.8c0-2.1-1.1-2.9-3-2.9c-1,0-3.2,1.4-4.6,2.1c-2.9,1.3-5.6,2.4-9.6,2.4c-1.6,0-2.1-3.7-2.1-4.8
		c0-2.7-2.9-5.8-9.1-5.8c-6,0-12.9,4.5-17.8,11.1c-0.3-1.2-1.3-1.8-2.5-1.8c-1.8,0-3.8,2.6-5.8,5c-5.6,7.4-18.6,18.4-29,18.4
		c-1.9,0-3.2-1.9-3.2-4c0-8.6,12.6-20.6,18.2-20.6c0.5,0,0.8,0.3,0.8,0.5c0,0.8-0.8,1.4-1.6,1.9c-1,0.6-1.9,1.8-1.9,3.2
		c0,2.2,1.4,3.2,2.9,3.2c3.4,0,8.5-4.5,8.5-9.4c0-3.7-4-7-7.8-7C15,35.2,0,53.6,0,64c0,7.7,6.2,10.4,9.8,10.4
		c12.6,0,26.9-11.5,34.9-20.5c-1.2,3.2-2,6.7-2,10.1c0,7.2,4.6,10.9,9.4,10.9c11.4,0,18.6-12.3,22.2-21.8c1.6,0,8.2-0.3,13.3-2.7
		C93,47.8,95.4,45.8,95.4,43.8z M53.9,68.5c-1.6,0-3.4-1.8-3.4-4.2c0-9.8,8.8-20.8,15.2-21.1c-0.3,1-0.6,2.2-0.6,3.2
		c0,1.8,1.6,3.7,2.6,3.8C67.7,54.2,59.8,68.5,53.9,68.5z"/>
	<path fill="#FFFFFF" d="M191,26.9c1.9,0,3.4,0.6,3.4,1.3c0,0.8-0.3,1.4-0.3,2.2c0,1,0.5,1.9,2.4,1.9c2.4,0,5-3.7,5-6.9
		c0-3.7-2.9-5.3-8.8-5.3c-3.2,0-6.4,0.6-9.1,1.4c4.5-8,5.4-10.4,7.7-12c3.2-2.6,3.8-3.8,3.8-5.9c0-2.4-1.1-3.7-4-3.7
		c-2.4,0-4.3,1.9-7,5.8c-2.9,3.8-5.4,9.1-11,18.9c-1.4,0.5-3,0.6-4.3,0.6c-1.9,0-3.2-1.3-4.8-1.3c-2.9,0-4.5,2.1-4.5,4.6
		s1.8,3.7,9.4,3.7c-2.4,4.8-4.9,10-7.1,15.1c0.1-0.3,0.1-0.6,0.1-0.9c0-1.6-1.1-2.4-2.6-2.4c-1.8,0-3.8,2.6-5.8,5
		c-5.4,7.4-14.2,17-17.9,17c-3,0-3.4-4.3-3.4-9.3c0-5.6,1-10.2,1-15c0-3.8-2.7-6.1-6.2-6.1c-7,0-18.6,12.5-23.7,18.2
		c0.3-1,2.4-8,3.4-10.6c1.6-4.5,2.2-5.9,2.2-8.2c0-2.2-2.2-3.4-3.4-3.4c-4.2,0-5.3,2.4-7.5,9.6c-3,9.4-9.3,25.9-9.3,29.9
		c0,3.2,2.6,4.3,5.4,4.3c2.7,0,4.2-7,5.8-9.1c3.7-5,18.9-21.9,23.4-21.9c1,0,1.4,1,1.4,1.8c0,3.8-1,8.6-1,12.2
		c0,7,1.4,14.4,9.4,14.4c8,0,18.6-12,25.9-21.1c0.7-0.9,1.3-1.7,1.8-2.3c-4,9.5-7,18.5-7,23.8c0,4.5,1.6,6.7,4.5,6.7
		c2.4,0,3.8-2.2,3.8-3.7c0-1-1.1-2.6-1.1-4c0-8.2,8.5-26.9,17.4-42.7C182.7,28.2,187.8,26.9,191,26.9z"/>
	<path fill="#FFFFFF" d="M315.3,0c-2.4,0-4.3,1.9-7,5.8c-2.9,3.8-5.4,9.1-11,18.9c-1.4,0.5-3,0.6-4.3,0.6c-1.9,0-3.2-1.3-4.8-1.3
		c-2.9,0-4.5,2.1-4.5,4.6s1.8,3.7,9.4,3.7c-2.4,4.8-4.9,10-7.1,15.1c0.1-0.3,0.1-0.6,0.1-0.9c0-1.6-1.1-2.4-2.6-2.4
		c-1.8,0-3.8,2.6-5.8,5c-5.6,7.4-18.6,18.4-29,18.4c-1.9,0-3.2-1.9-3.2-4c0-8.6,12.6-20.6,18.2-20.6c0.5,0,0.8,0.3,0.8,0.5
		c0,0.8-0.8,1.4-1.6,1.9c-1,0.6-1.9,1.8-1.9,3.2c0,2.2,1.4,3.2,2.9,3.2c3.4,0,8.5-4.5,8.5-9.4c0-3.7-4-7-7.8-7
		c-6.5,0-13.5,4.8-18.9,10.9c-0.2-1.3-1.2-1.9-2.5-1.9c-1.8,0-3.8,2.6-5.8,5c-5.8,6.9-14.7,16.5-20,16.5c-1.4,0-2.1-1.8-2.1-3.4
		c0-2.2,1.3-5.8,2.9-9c1.9-4.2,7.7-11,7.7-13.8c0-2.2-1.8-4-4.8-4c-2.4,0-4.2,3.2-4.6,3.2c-1.6-1.9-4-3.5-6.6-3.5
		c-12.2,0-30.7,16-30.7,32.5c0,4.2,3.4,7,5.4,7c7.2,0,18.1-10.9,22.7-15.5c-0.2,2.2-0.3,3.8-0.3,5.6c0,4.5,2.6,8.2,7.8,8.2
		c6.8,0,16.4-8.3,23.9-16.3c-1.2,2.6-1.8,5.2-1.8,7.4c0,7.7,6.2,10.4,9.8,10.4c13.6,0,29.1-13.3,36.6-22.6c0.7-0.9,1.3-1.7,1.8-2.3
		c-4,9.5-7,18.5-7,23.8c0,4.5,1.6,6.7,4.5,6.7c2.4,0,3.8-2.2,3.8-3.7c0-1-1.1-2.6-1.1-4c0-8.2,7.4-24.3,16.3-40.2
		c5.9,0,15-0.2,15-4.6c0-2.2-0.6-3.8-3.2-3.8c-2.4,0-4.3,1.3-7.4,1.3c4-8.2,7.2-13.8,9.4-15.4c3.2-2.6,3.8-3.8,3.8-5.9
		C319.3,1.3,318.2,0,315.3,0z M189.3,66.1c-0.8,0-1.4-0.5-1.4-1.3c0-7.4,13.6-22.1,20-22.1c2.1,0,3.5,1.4,3.5,3.2
		C211.4,49,191.7,66.1,189.3,66.1z"/>
	<path fill="#FFFFFF" d="M424.3,34.4c-6.3,0-16.7,5.7-19.3,12.9c0-0.3,0.1-0.5,0.1-0.8c0-1.6-1.1-2.4-2.6-2.4c-1.8,0-3.8,2.6-5.8,5
		c-5.6,7.4-15.2,17.3-18.7,17.3c-0.8,0-1.6-0.8-1.6-2.7c0-6.2,3.4-14.7,7-19.8c1.1-1.6,2.2-2.9,2.2-4.3c0-1.8-1.1-3.4-3.7-3.4
		c-2.1,0-3.7,2.2-5.1,4.3s-2.7,4.3-7.2,12.3c-4.8,6.9-15,14.7-17.8,14.7c-1,0-1.3-1.1-1.3-1.9c0-1.9,1.9-5.3,3.8-8.6
		c2.9-5.1,5.9-11.4,5.9-16.8c0-3-1-5-3.8-5c-3.2,0-4.3,2.1-4.3,6.1c0,4.3-2.2,9.3-5.1,13.9c-2.6,4.2-4.8,8.2-4.8,11.8
		c0,2.7,1.6,7.2,7.4,7.2c6.2,0,13.4-5.8,20.5-12.6c0,7.4,0.6,11.5,6.6,11.5c7.4,0,18.1-12.2,25.6-21.3c1.2-1.5,1.9-2.5,2.3-3.4
		c-0.2,0.7-0.3,1.4-0.3,2.1c0,3.8,3,6.1,6.1,7.7c2.4,1.3,5.3,2.9,5.3,5.8c0,2.7-2.1,5.3-5.1,5.3c-2.6,0-4-1.3-4-3.5s-1.6-3-3.4-3
		c-2.2,0-3.8,1.8-3.8,4.2c0,4,4.2,8,10.2,8c9.4,0,14.4-6.1,14.4-11.7c0-6.1-4.6-8.3-8-10.1c-1.9-1-3.5-2.2-3.5-3.5
		c0-4,7.2-8.5,9.3-8.5c1,0,1.4,0.5,1.4,1.1c0,1.3-1.8,2.6-1.8,4.2c0,2.2,1.3,3.4,3.5,3.4c3.5,0,5.8-5.8,5.8-9.4
		C430.9,37,427.3,34.4,424.3,34.4z"/>
</g>
</svg>
