<svg id="Слой_1" data-name="Слой 1" xmlns="http://www.w3.org/2000/svg" viewBox="0 0 32 32"><defs><style>.cls-1{fill:#fff;}</style></defs><title>pin-main-white</title><path class="cls-1" d="M16,.3A13.19,13.19,0,0,0,2.8,13.5c0,5.7,8.1,14.1,12.9,18.2a.85.85,0,0,0,.8,0c4.8-4.1,12.9-12.5,12.9-18.2A13.49,13.49,0,0,0,16,.3ZM16.5,30l-.5.5-.5-.5C13.6,28.3,3.9,19.4,3.9,13.5a12.1,12.1,0,0,1,24.2.1C28.1,19.4,18.4,28.3,16.5,30Z"/><path class="cls-1" d="M16,7.5a6.1,6.1,0,1,0,6.1,6.1A6.12,6.12,0,0,0,16,7.5Zm0,10.9a4.9,4.9,0,1,1,4.9-4.9A4.91,4.91,0,0,1,16,18.4Z"/></svg>